<svg version="1.1" id="Layer_1" xmlns="http://www.w3.org/2000/svg" xmlns:xlink="http://www.w3.org/1999/xlink" x="0px" y="0px" width="100%" viewBox="0 0 500 500" xml:space="preserve">
<path fill="#03C1CA" opacity="1.000000" stroke="none" 
	d="
M198.120270,275.746918 
	C178.909134,283.460388 159.699234,291.177002 140.478912,298.867523 
	C140.043594,299.041687 139.489853,298.919830 138.219727,298.775452 
	C136.971039,297.013611 136.078400,295.412811 136.076813,293.811127 
	C136.012192,228.939545 136.025223,164.067871 136.044739,99.196213 
	C136.045441,96.872406 136.211685,94.548637 136.709198,92.181900 
	C139.547638,91.791611 141.977661,91.444275 144.407700,91.096931 
	C144.407700,91.096931 144.528549,90.965439 144.890717,91.120117 
	C145.451324,91.330200 145.649780,91.385612 146.219727,91.632942 
	C147.417953,91.893410 148.244659,92.021873 149.071396,92.021996 
	C215.802246,92.031830 282.533112,92.034904 349.263947,92.008308 
	C350.560211,92.007797 351.856354,91.649544 353.518799,91.450058 
	C354.861389,91.445686 355.837708,91.449448 356.959290,91.590820 
	C357.464966,91.643845 357.825439,91.559273 358.519897,91.473358 
	C359.521667,91.490303 360.189453,91.508583 361.195984,91.697754 
	C362.970215,92.737534 365.656219,93.656250 365.623901,94.466637 
	C365.486420,97.916481 364.544250,101.334259 363.895844,104.763748 
	C344.011902,105.048286 324.468872,108.216782 305.019226,111.966354 
	C283.344818,116.144798 261.547272,119.890305 240.142120,125.192047 
	C224.134705,129.156830 208.438019,134.712296 193.061935,140.731827 
	C186.514938,143.294907 180.223572,147.178787 175.507690,153.525467 
	C169.584579,161.496857 171.522552,170.935623 177.372574,176.639648 
	C182.930191,182.058548 189.515213,186.491531 195.935730,190.943817 
	C210.330780,200.925980 227.968353,202.999557 243.532166,210.124847 
	C248.372391,212.340775 253.099579,215.279205 257.071533,218.797836 
	C262.235229,223.372208 262.207947,230.206207 258.407166,236.130722 
	C251.548370,246.821945 240.827850,252.747452 230.455292,259.101624 
	C226.996567,261.220428 223.332657,263.004272 219.101273,265.019775 
	C218.298584,265.426331 218.157181,265.754303 218.015778,266.082275 
	C218.015778,266.082275 218.009064,266.013916 217.701843,265.909119 
	C216.931183,266.232178 216.467743,266.660034 216.004303,267.087921 
	C216.004318,267.087921 216.008957,267.017975 215.682693,266.897064 
	C214.241867,267.546265 213.127304,268.316376 212.012726,269.086487 
	C212.012726,269.086487 212.009933,269.016907 211.701538,268.910217 
	C210.930283,269.231384 210.467438,269.659241 210.004578,270.087128 
	C210.004578,270.087128 210.008804,270.017090 209.663010,269.903748 
	C205.584900,271.775940 201.852585,273.761444 198.120270,275.746918 
z"/>
<path fill="#CB6CE6" opacity="1.000000" stroke="none" 
	d="
M351.981384,304.887756 
	C350.570801,305.588684 349.160217,306.289642 347.165527,306.797607 
	C344.571381,306.956268 342.414734,306.973145 340.599152,307.768524 
	C339.218140,308.373444 338.270477,309.967621 337.130035,311.121674 
	C337.130035,311.121674 337.056580,311.096710 336.726746,311.012146 
	C335.938446,310.874969 335.479950,310.822357 334.672546,310.548157 
	C317.744110,310.326538 301.164551,310.326538 283.379791,310.326538 
	C286.200287,305.975586 288.117249,303.018433 290.271301,300.043701 
	C290.508362,300.026123 290.982880,299.996063 291.212402,299.759033 
	C291.488647,299.088867 291.535370,298.655762 291.566986,298.298309 
	C291.551849,298.373993 291.399780,298.400543 291.558411,298.309326 
	C291.717041,298.218109 292.024200,298.019073 292.335876,297.964935 
	C293.108856,297.278687 293.570160,296.646606 294.355286,295.866394 
	C298.197937,294.894745 299.257416,292.445862 299.024597,289.142883 
	C301.282013,286.991180 303.539429,284.839478 306.209412,282.572174 
	C311.407349,284.519073 310.730988,280.864197 311.070190,278.179962 
	C311.102692,278.121552 311.226562,278.071320 311.495178,278.014130 
	C312.166809,277.614014 312.569824,277.271088 312.981903,276.963135 
	C312.990967,276.998108 312.925934,276.966583 313.243042,276.853333 
	C314.673248,275.446930 315.786377,274.153748 316.960266,272.535736 
	C316.992798,271.777893 316.964508,271.344910 316.936218,270.911896 
	C316.936218,270.911896 316.989868,270.967560 317.247314,270.946075 
	C317.658356,270.586700 317.811951,270.248779 317.965515,269.910889 
	C317.965515,269.910889 317.950928,269.985321 318.236267,270.043945 
	C318.947815,270.057343 319.374023,270.012177 320.054932,269.872498 
	C320.530304,269.500214 320.751007,269.222382 320.982849,268.972992 
	C320.994019,269.001465 320.942261,268.968872 321.170654,268.863403 
	C321.590302,268.488892 321.781555,268.219818 321.962708,267.974365 
	C321.952637,267.998016 321.936951,267.948883 322.306091,267.961304 
	C323.808990,266.406982 324.942719,264.840210 326.076080,262.928040 
	C326.030884,262.356720 325.986084,262.130829 325.941254,261.904938 
	C325.941254,261.904938 325.961945,261.995056 326.198303,262.045227 
	C326.620514,262.113586 326.806305,262.131714 327.253784,262.379181 
	C332.572784,263.040344 330.466003,259.185211 330.944946,256.877380 
	C336.008148,248.380753 342.299408,240.394211 343.776184,230.267258 
	C345.320923,219.674133 341.936737,210.193878 334.123413,203.192657 
	C328.575653,198.221497 321.609467,194.833252 315.117676,190.037170 
	C314.060303,188.310120 313.357788,186.846512 312.226654,186.339813 
	C308.657867,184.741241 304.971375,183.369034 301.249023,182.159958 
	C297.550262,180.958588 293.752899,180.060837 289.603271,179.018036 
	C279.773834,176.493561 270.388428,173.774857 260.889221,171.539551 
	C254.347534,170.000183 247.648224,169.130646 240.837982,167.657684 
	C233.065063,165.252411 225.473526,163.151169 217.882004,161.049927 
	C214.345749,159.416840 211.723053,157.136063 212.463898,152.336182 
	C215.459930,152.342911 218.013748,152.797577 221.244339,153.372726 
	C220.918427,151.246704 220.432755,148.078537 219.947083,144.910355 
	C219.947083,144.910355 220.003433,144.964493 220.233398,144.979462 
	C220.642075,144.996277 220.820770,144.998138 221.394897,145.000732 
	C224.288498,144.246643 226.939499,143.803116 229.250977,142.668137 
	C233.287811,140.685959 237.115799,138.278442 241.467072,136.033569 
	C248.029221,134.689117 254.168457,133.413864 260.263580,131.954514 
	C260.925720,131.795975 261.333160,130.573654 261.881836,129.858704 
	C261.904938,129.872650 261.926453,129.922165 262.265808,129.944092 
	C263.401184,129.655014 264.197205,129.344009 265.305359,128.845642 
	C267.747925,127.744476 269.878326,126.830673 272.008728,125.916862 
	C272.008728,125.916862 271.987793,125.985077 272.335815,126.054291 
	C274.392792,125.831032 276.101746,125.538559 277.810699,125.246078 
	C278.639526,124.841606 279.468323,124.437134 280.950623,124.329483 
	C283.063293,124.584496 284.553162,124.719185 285.976624,124.471848 
	C294.409424,123.006485 302.848389,121.557854 311.231476,119.840843 
	C312.939758,119.490959 314.418396,118.019814 316.318451,116.994049 
	C317.277771,116.906487 317.921539,116.890411 319.063232,116.910110 
	C321.997284,116.962021 324.510193,117.347282 326.842163,116.862427 
	C328.356384,116.547569 329.606842,114.963882 331.146423,113.844376 
	C331.555359,113.606140 331.744629,113.422150 331.885223,113.188118 
	C341.266174,111.460388 350.647156,109.732666 360.877716,108.027512 
	C363.711761,108.180229 366.377411,107.346321 365.627319,111.313675 
	C365.248749,113.619026 365.028259,115.595917 365.015320,117.574173 
	C364.666382,170.903091 364.268799,224.231903 364.082855,277.561462 
	C364.055023,285.549500 360.627472,291.716248 355.952576,297.672394 
	C354.279846,299.803589 353.285400,302.467163 351.981384,304.887756 
z"/>
<path fill="#BE7AD2" opacity="1.000000" stroke="none" 
	d="
M352.321960,304.888947 
	C353.285400,302.467163 354.279846,299.803589 355.952576,297.672394 
	C360.627472,291.716248 364.055023,285.549500 364.082855,277.561462 
	C364.268799,224.231903 364.666382,170.903091 365.015320,117.574173 
	C365.028259,115.595917 365.248749,113.619026 365.678772,111.781799 
	C365.990112,169.324234 365.995239,226.726379 366.000366,284.128510 
	C364.583008,292.994690 358.795258,299.053192 352.321960,304.888947 
z"/>
<path fill="#72E1E4" opacity="1.000000" stroke="none" 
	d="
M136.300781,92.224854 
	C136.211685,94.548637 136.045441,96.872406 136.044739,99.196213 
	C136.025223,164.067871 136.012192,228.939545 136.076813,293.811127 
	C136.078400,295.412811 136.971039,297.013611 137.837921,298.743225 
	C135.321060,301.429932 134.088928,299.550934 134.093369,296.902588 
	C134.100784,292.479645 134.953293,288.057983 134.958099,283.635223 
	C135.022339,224.509232 135.006012,165.383118 134.991211,106.257027 
	C134.990082,101.758347 134.849152,97.259689 135.248108,92.422417 
	C135.915604,92.130829 136.108200,92.177841 136.300781,92.224854 
z"/>
<path fill="#E6FFFF" opacity="1.000000" stroke="none" 
	d="
M360.857239,91.526855 
	C360.189453,91.508583 359.521667,91.490303 358.178223,91.371109 
	C357.273041,91.331200 357.043518,91.392204 356.814026,91.453217 
	C355.837708,91.449448 354.861389,91.445686 353.061584,91.291138 
	C351.240540,91.091194 350.243011,90.999107 349.245483,90.999001 
	C282.927155,90.991837 216.608810,90.989182 150.290482,91.010468 
	C148.809692,91.010941 147.328979,91.291252 145.848236,91.441025 
	C145.649780,91.385612 145.451324,91.330200 144.958588,91.178131 
	C145.843262,90.721016 147.022003,90.045876 148.201187,90.045120 
	C220.241531,89.998978 292.281891,90.007607 364.322266,90.023109 
	C364.809204,90.023216 365.296112,90.189491 365.563721,90.652588 
	C363.848663,91.193619 362.352966,91.360237 360.857239,91.526855 
z"/>
<path fill="#F2C9FD" opacity="1.000000" stroke="none" 
	d="
M366.401489,283.928253 
	C365.995239,226.726379 365.990112,169.324234 365.933533,111.453979 
	C366.377411,107.346321 363.711761,108.180229 361.318756,108.008621 
	C362.187683,107.235413 363.465179,106.503677 365.083374,105.422485 
	C365.424072,105.073013 365.750916,104.964119 365.750916,104.964119 
	C366.167938,106.489433 366.947876,108.014313 366.949707,109.540123 
	C367.018982,167.111954 367.017151,224.683884 367.014740,282.255798 
	C367.014740,282.746521 366.876373,283.237274 366.401489,283.928253 
z"/>
<path fill="#C07ED5" opacity="1.000000" stroke="none" 
	d="
M241.019363,167.961731 
	C247.648224,169.130646 254.347534,170.000183 260.889221,171.539551 
	C270.388428,173.774857 279.773834,176.493561 289.603302,179.312241 
	C289.998566,180.011459 289.998291,180.404556 289.998047,180.797638 
	C275.377014,177.406952 260.757965,174.007614 246.132080,170.638107 
	C244.559967,170.275925 242.947891,170.087234 241.170441,169.180298 
	C240.997467,168.348923 241.008423,168.155319 241.019363,167.961731 
z"/>
<path fill="#BE7AD2" opacity="1.000000" stroke="none" 
	d="
M290.034210,300.061279 
	C288.117249,303.018433 286.200287,305.975586 283.379791,310.326538 
	C301.164551,310.326538 317.744110,310.326538 334.204285,310.608582 
	C316.377991,310.919830 298.671051,310.949066 280.964111,310.978333 
	C281.853821,308.926849 282.446838,306.665955 283.709167,304.877472 
	C285.251221,302.692688 287.354919,300.904358 289.600220,299.206299 
	C290.001221,299.665771 290.017731,299.863525 290.034210,300.061279 
z"/>
<path fill="#C07CD4" opacity="1.000000" stroke="none" 
	d="
M316.002899,117.065544 
	C314.418396,118.019814 312.939758,119.490959 311.231476,119.840843 
	C302.848389,121.557854 294.409424,123.006485 285.976624,124.471848 
	C284.553162,124.719185 283.063293,124.584496 281.303040,124.389618 
	C290.091614,121.848114 299.181244,119.543312 308.815216,117.412369 
	C309.905701,117.360435 310.451874,117.134628 310.998047,116.908821 
	C310.998047,116.908829 310.945465,116.984833 311.329651,117.052277 
	C313.143524,117.101662 314.573212,117.083603 316.002899,117.065544 
z"/>
<path fill="#C27ED4" opacity="1.000000" stroke="none" 
	d="
M290.371796,180.887238 
	C289.998291,180.404556 289.998566,180.011459 289.998779,179.324158 
	C293.752899,180.060837 297.550262,180.958588 301.249023,182.159958 
	C304.971375,183.369034 308.657867,184.741241 312.226654,186.339813 
	C313.357788,186.846512 314.060303,188.310120 314.958313,189.718781 
	C306.886963,187.060120 298.816254,184.018478 290.371796,180.887238 
z"/>
<path fill="#BE7CD1" opacity="1.000000" stroke="none" 
	d="
M240.837982,167.657684 
	C241.008423,168.155319 240.997467,168.348923 240.968750,168.832825 
	C233.363632,166.653442 225.776276,164.183762 218.035461,161.382004 
	C225.473526,163.151169 233.065063,165.252411 240.837982,167.657684 
z"/>
<path fill="#EFC7F9" opacity="1.000000" stroke="none" 
	d="
M281.148376,311.381775 
	C298.671051,310.949066 316.377991,310.919830 334.553192,310.830170 
	C335.479950,310.822357 335.938446,310.874969 336.740082,310.975708 
	C336.428345,311.358521 335.773041,311.986176 335.118713,311.985199 
	C317.189941,311.957703 299.261322,311.866119 281.148376,311.381775 
z"/>
<path fill="#BE7CD1" opacity="1.000000" stroke="none" 
	d="
M241.031311,136.049179 
	C237.115799,138.278442 233.287811,140.685959 229.250977,142.668137 
	C226.939499,143.803116 224.288498,144.246643 221.392181,144.728439 
	C220.985474,144.274048 220.976929,144.092712 220.968399,143.911377 
	C227.406921,141.033279 233.845444,138.155182 240.647003,135.439011 
	C241.010040,135.600952 241.031311,136.049179 241.031311,136.049179 
z"/>
<path fill="#C27ED4" opacity="1.000000" stroke="none" 
	d="
M241.467072,136.033569 
	C241.031311,136.049179 241.010040,135.600952 241.006256,135.376617 
	C246.016357,133.430679 251.030228,131.709091 256.839722,130.053894 
	C259.043152,130.028442 260.450928,129.936600 261.858704,129.844757 
	C261.333160,130.573654 260.925720,131.795975 260.263580,131.954514 
	C254.168457,133.413864 248.029221,134.689117 241.467072,136.033569 
z"/>
<path fill="#C375DA" opacity="1.000000" stroke="none" 
	d="
M219.588242,144.943558 
	C220.432755,148.078537 220.918427,151.246704 221.244339,153.372726 
	C218.013748,152.797577 215.459930,152.342911 212.542938,151.948990 
	C214.529648,149.665405 216.879532,147.321091 219.588242,144.943558 
z"/>
<path fill="#C07ED5" opacity="1.000000" stroke="none" 
	d="
M290.271301,300.043701 
	C290.017731,299.863525 290.001221,299.665771 289.963440,299.171112 
	C292.727844,295.575745 295.513519,292.277222 298.661865,289.060791 
	C299.257416,292.445862 298.197937,294.894745 294.087982,295.988220 
	C293.006012,296.845123 292.515106,297.432098 292.024200,298.019073 
	C292.024200,298.019073 291.717041,298.218109 291.548218,298.272675 
	C291.379395,298.327240 291.379608,298.242004 291.262390,298.676422 
	C291.091064,299.405884 291.036987,299.700958 290.982880,299.996063 
	C290.982880,299.996063 290.508362,300.026123 290.271301,300.043701 
z"/>
<path fill="#BE7AD2" opacity="1.000000" stroke="none" 
	d="
M337.521057,311.073669 
	C338.270477,309.967621 339.218140,308.373444 340.599152,307.768524 
	C342.414734,306.973145 344.571381,306.956268 346.816559,306.854065 
	C344.005188,308.410858 340.958649,309.718262 337.521057,311.073669 
z"/>
<path fill="#72E4E6" opacity="1.000000" stroke="none" 
	d="
M365.944336,104.624763 
	C365.750916,104.964119 365.424072,105.073013 365.252045,105.077850 
	C364.884247,105.025772 364.688446,104.968857 364.194244,104.837845 
	C364.544250,101.334259 365.486420,97.916481 365.623901,94.466637 
	C365.656219,93.656250 362.970215,92.737534 361.195984,91.697754 
	C362.352966,91.360237 363.848663,91.193619 365.805481,91.034851 
	C368.248962,95.476639 367.652161,99.885483 365.944336,104.624763 
z"/>
<path fill="#ADF4F4" opacity="1.000000" stroke="none" 
	d="
M198.455566,275.634521 
	C201.852585,273.761444 205.584900,271.775940 209.696686,269.913574 
	C206.314392,271.865173 202.552612,273.693634 198.455566,275.634521 
z"/>
<path fill="#F9D9FD" opacity="1.000000" stroke="none" 
	d="
M261.881836,129.858704 
	C260.450928,129.936600 259.043152,130.028442 257.214142,130.049942 
	C261.586090,128.653381 266.379272,127.327179 271.590576,125.958916 
	C269.878326,126.830673 267.747925,127.744476 264.969604,128.836441 
	C263.523285,129.317123 262.724854,129.619644 261.926453,129.922165 
	C261.926453,129.922165 261.904938,129.872650 261.881836,129.858704 
z"/>
<path fill="#F9D9FD" opacity="1.000000" stroke="none" 
	d="
M316.318451,116.994064 
	C314.573212,117.083603 313.143524,117.101662 311.292999,117.024109 
	C315.609528,115.949135 320.346893,114.969765 325.527954,113.980995 
	C325.971680,113.971596 326.006531,114.012589 325.797333,114.303101 
	C323.247192,115.353851 320.906250,116.114098 318.565308,116.874336 
	C317.921539,116.890411 317.277771,116.906487 316.318451,116.994064 
z"/>
<path fill="#BE7AD2" opacity="1.000000" stroke="none" 
	d="
M330.600281,256.915131 
	C330.466003,259.185211 332.572784,263.040344 327.276428,262.055664 
	C327.021942,261.288330 327.006500,261.073792 326.991058,260.859283 
	C328.079254,259.557129 329.167450,258.255005 330.600281,256.915131 
z"/>
<path fill="#BE7AD2" opacity="1.000000" stroke="none" 
	d="
M311.037689,278.238373 
	C310.730988,280.864197 311.407349,284.519073 306.383423,282.263916 
	C306.549438,281.412659 306.953979,280.754089 307.831726,280.097534 
	C308.531860,279.694611 308.758759,279.289612 308.985657,278.884613 
	C308.985657,278.884613 308.978821,278.995758 309.204010,278.923309 
	C309.611603,278.535126 309.793976,278.219421 309.976379,277.903687 
	C309.976379,277.903687 309.907471,277.964478 310.168976,278.038879 
	C310.632904,278.154999 310.835297,278.196686 311.037689,278.238373 
z"/>
<path fill="#72E4E6" opacity="1.000000" stroke="none" 
	d="
M136.709198,92.181900 
	C136.108200,92.177841 135.915604,92.130829 135.429092,92.038460 
	C137.903610,91.667801 140.672058,91.342491 143.924103,91.057060 
	C141.977661,91.444275 139.547638,91.791611 136.709198,92.181900 
z"/>
<path fill="#EFC7F9" opacity="1.000000" stroke="none" 
	d="
M319.800262,269.966980 
	C319.374023,270.012177 318.947815,270.057343 318.211670,270.015045 
	C319.034546,268.659271 320.167297,267.390991 321.630920,266.040894 
	C321.961731,265.959076 322.016327,266.014618 322.054993,266.337219 
	C322.041412,267.089539 321.989197,267.519196 321.936951,267.948883 
	C321.936951,267.948883 321.952637,267.998016 321.721252,268.062134 
	C321.307312,268.407104 321.124786,268.687988 320.942261,268.968872 
	C320.942261,268.968872 320.994019,269.001465 320.734650,269.073364 
	C320.250275,269.419159 320.025269,269.693054 319.800262,269.966980 
z"/>
<path fill="#F9D9FD" opacity="1.000000" stroke="none" 
	d="
M277.417694,125.179031 
	C276.101746,125.538559 274.392792,125.831032 272.303192,126.039841 
	C273.623260,125.674774 275.323975,125.393379 277.417694,125.179031 
z"/>
<path fill="#ADF4F4" opacity="1.000000" stroke="none" 
	d="
M212.367249,269.056122 
	C213.127304,268.316376 214.241867,267.546265 215.715912,266.908234 
	C214.957535,267.702148 213.839645,268.363953 212.367249,269.056122 
z"/>
<path fill="#F9D9FD" opacity="1.000000" stroke="none" 
	d="
M331.487427,113.123993 
	C331.744629,113.422150 331.555359,113.606140 330.732544,113.838531 
	C328.767273,113.962196 327.386902,113.987389 326.006531,114.012589 
	C326.006531,114.012589 325.971680,113.971596 325.953918,113.951416 
	C327.653961,113.640785 329.371765,113.350327 331.487427,113.123993 
z"/>
<path fill="#EFC7F9" opacity="1.000000" stroke="none" 
	d="
M321.934814,265.930969 
	C322.711182,264.971619 323.514435,264.040405 324.639587,263.034729 
	C324.961487,262.960236 325.012909,263.017212 325.004791,263.356079 
	C324.003235,264.468170 323.009766,265.241394 322.016327,266.014618 
	C322.016327,266.014618 321.961731,265.959076 321.934814,265.930969 
z"/>
<path fill="#EFC7F9" opacity="1.000000" stroke="none" 
	d="
M316.636475,271.005493 
	C316.964508,271.344910 316.992798,271.777893 316.683350,272.700073 
	C315.567963,273.464661 314.790253,273.740112 313.984924,273.987488 
	C313.957275,273.959412 313.899170,273.906219 313.899170,273.906219 
	C314.711700,272.970490 315.524200,272.034790 316.636475,271.005493 
z"/>
<path fill="#EFC7F9" opacity="1.000000" stroke="none" 
	d="
M310.906403,276.912415 
	C311.385162,276.304230 311.863892,275.696014 312.650696,275.022980 
	C312.958771,274.958130 313.015533,275.012024 313.056274,275.338074 
	C313.039978,276.098267 312.982971,276.532440 312.925964,276.966583 
	C312.925934,276.966583 312.990967,276.998108 312.655029,276.991974 
	C311.884888,276.995270 311.450714,277.004669 310.988892,276.988739 
	C310.961304,276.963409 310.906403,276.912415 310.906403,276.912415 
z"/>
<path fill="#F9D9FD" opacity="1.000000" stroke="none" 
	d="
M310.671234,116.954178 
	C310.451874,117.134628 309.905701,117.360435 309.199310,117.371277 
	C309.474213,117.104050 309.909302,117.051796 310.671234,116.954178 
z"/>
<path fill="#EFC7F9" opacity="1.000000" stroke="none" 
	d="
M308.751526,278.992737 
	C308.758759,279.289612 308.531860,279.694611 308.132874,280.018372 
	C308.146332,279.658356 308.331848,279.379608 308.751526,278.992737 
z"/>
<path fill="#ADF4F4" opacity="1.000000" stroke="none" 
	d="
M210.332794,270.056580 
	C210.467438,269.659241 210.930283,269.231384 211.734695,268.920837 
	C211.604492,269.367493 211.132736,269.696777 210.332794,270.056580 
z"/>
<path fill="#ADF4F4" opacity="1.000000" stroke="none" 
	d="
M216.332565,267.056763 
	C216.467743,266.660034 216.931183,266.232178 217.734650,265.919250 
	C217.603394,266.364685 217.132111,266.695129 216.332565,267.056763 
z"/>
<path fill="#EFC7F9" opacity="1.000000" stroke="none" 
	d="
M312.932068,274.929535 
	C313.072357,274.614990 313.239349,274.329041 313.652771,273.974670 
	C313.899170,273.906219 313.957275,273.959412 313.944489,274.254517 
	C313.626312,274.703735 313.320923,274.857880 313.015533,275.012024 
	C313.015533,275.012024 312.958771,274.958130 312.932068,274.929535 
z"/>
<path fill="#C375DA" opacity="1.000000" stroke="none" 
	d="
M220.713623,143.989822 
	C220.976929,144.092712 220.985474,144.274048 220.996735,144.727692 
	C220.820770,144.998138 220.642075,144.996277 220.194946,144.972626 
	C220.103958,144.656631 220.281403,144.362442 220.713623,143.989822 
z"/>
<path fill="#EFC7F9" opacity="1.000000" stroke="none" 
	d="
M309.701111,277.970947 
	C309.793976,278.219421 309.611603,278.535126 309.148560,278.918213 
	C309.053894,278.669739 309.239868,278.353973 309.701111,277.970947 
z"/>
<path fill="#EFC7F9" opacity="1.000000" stroke="none" 
	d="
M311.070190,278.179962 
	C310.835297,278.196686 310.632904,278.154999 310.140594,278.002747 
	C310.035675,277.609863 310.220673,277.327515 310.656006,276.978790 
	C310.906403,276.912415 310.961304,276.963409 311.064392,277.248474 
	C311.187164,277.712799 311.206848,277.892059 311.226562,278.071320 
	C311.226562,278.071320 311.102692,278.121552 311.070190,278.179962 
z"/>
<path fill="#EFC7F9" opacity="1.000000" stroke="none" 
	d="
M317.696533,269.973816 
	C317.811951,270.248779 317.658356,270.586700 317.208679,270.945099 
	C317.084259,270.655975 317.255920,270.346344 317.696533,269.973816 
z"/>
<path fill="#EFC7F9" opacity="1.000000" stroke="none" 
	d="
M326.725555,260.938141 
	C327.006500,261.073792 327.021942,261.288330 327.014740,261.826355 
	C326.806305,262.131714 326.620514,262.113586 326.167450,262.010834 
	C326.086823,261.623169 326.273438,261.320068 326.725555,260.938141 
z"/>
<path fill="#ADF4F4" opacity="1.000000" stroke="none" 
	d="
M218.282761,266.014343 
	C218.157181,265.754303 218.298584,265.426331 218.735291,265.055969 
	C218.870300,265.324524 218.710022,265.635468 218.282761,266.014343 
z"/>
<path fill="#EFC7F9" opacity="1.000000" stroke="none" 
	d="
M325.685181,261.967529 
	C325.986084,262.130829 326.030884,262.356720 325.804382,262.886475 
	C325.359711,263.132599 325.186310,263.074921 325.012909,263.017212 
	C325.012909,263.017212 324.961487,262.960236 324.934814,262.932617 
	C325.081848,262.613373 325.255493,262.321747 325.685181,261.967529 
z"/>
<path fill="#72E4E6" opacity="1.000000" stroke="none" 
	d="
M146.219727,91.632935 
	C147.328979,91.291252 148.809692,91.010941 150.290482,91.010468 
	C216.608810,90.989182 282.927155,90.991837 349.245483,90.999001 
	C350.243011,90.999107 351.240540,91.091194 352.695312,91.299271 
	C351.856354,91.649544 350.560211,92.007797 349.263947,92.008308 
	C282.533112,92.034904 215.802246,92.031830 149.071396,92.021996 
	C148.244659,92.021873 147.417953,91.893410 146.219727,91.632935 
z"/>
<path fill="#72E4E6" opacity="1.000000" stroke="none" 
	d="
M356.959290,91.590820 
	C357.043518,91.392204 357.273041,91.331200 357.844238,91.372437 
	C357.825439,91.559273 357.464966,91.643845 356.959290,91.590820 
z"/>
<path fill="#C07CD4" opacity="1.000000" stroke="none" 
	d="
M325.797333,114.303101 
	C327.386902,113.987389 328.767273,113.962196 330.561554,113.942841 
	C329.606842,114.963882 328.356384,116.547569 326.842163,116.862427 
	C324.510193,117.347282 321.997284,116.962021 319.063232,116.910110 
	C320.906250,116.114098 323.247192,115.353851 325.797333,114.303101 
z"/>
<path fill="#BE7AD2" opacity="1.000000" stroke="none" 
	d="
M313.056274,275.338074 
	C313.320923,274.857880 313.626312,274.703735 313.972137,274.282562 
	C314.790253,273.740112 315.567963,273.464661 316.622559,273.024902 
	C315.786377,274.153748 314.673248,275.446930 313.243042,276.853333 
	C312.982971,276.532440 313.039978,276.098267 313.056274,275.338074 
z"/>
<path fill="#BE7AD2" opacity="1.000000" stroke="none" 
	d="
M325.004791,263.356079 
	C325.186310,263.074921 325.359711,263.132599 325.804749,263.231873 
	C324.942719,264.840210 323.808990,266.406982 322.306122,267.961304 
	C321.989197,267.519196 322.041412,267.089539 322.054993,266.337219 
	C323.009766,265.241394 324.003235,264.468170 325.004791,263.356079 
z"/>
<path fill="#C27ED4" opacity="1.000000" stroke="none" 
	d="
M262.265808,129.944092 
	C262.724854,129.619644 263.523285,129.317123 264.657471,129.023804 
	C264.197205,129.344009 263.401184,129.655014 262.265808,129.944092 
z"/>
<path fill="#BE7AD2" opacity="1.000000" stroke="none" 
	d="
M292.335876,297.964935 
	C292.515106,297.432098 293.006012,296.845123 293.764221,296.136292 
	C293.570160,296.646606 293.108856,297.278687 292.335876,297.964935 
z"/>
<path fill="#BE7AD2" opacity="1.000000" stroke="none" 
	d="
M311.495178,278.014130 
	C311.206848,277.892059 311.187164,277.712799 311.092010,277.273804 
	C311.450714,277.004669 311.884888,276.995270 312.645966,276.957001 
	C312.569824,277.271088 312.166809,277.614014 311.495178,278.014130 
z"/>
<path fill="#000000" opacity="1.000000" stroke="none" 
	d="
M291.379608,298.242004 
	C291.379608,298.242004 291.379395,298.327240 291.389587,298.363892 
	C291.399780,298.400543 291.551849,298.373993 291.516174,298.331360 
	C291.480530,298.288696 291.379608,298.242004 291.379608,298.242004 
z"/>
<path fill="#BE7AD2" opacity="1.000000" stroke="none" 
	d="
M291.262390,298.676422 
	C291.379608,298.242004 291.480530,298.288696 291.531311,298.255676 
	C291.535370,298.655762 291.488647,299.088867 291.212402,299.759033 
	C291.036987,299.700958 291.091064,299.405884 291.262390,298.676422 
z"/>
<path fill="#BE7AD2" opacity="1.000000" stroke="none" 
	d="
M320.054932,269.872498 
	C320.025269,269.693054 320.250275,269.419159 320.723511,269.044861 
	C320.751007,269.222382 320.530304,269.500214 320.054932,269.872498 
z"/>
<path fill="#BE7AD2" opacity="1.000000" stroke="none" 
	d="
M321.170624,268.863403 
	C321.124786,268.687988 321.307312,268.407104 321.731323,268.038483 
	C321.781555,268.219818 321.590302,268.488892 321.170624,268.863403 
z"/>
</svg>